<?xml version="1.0" standalone="no"?>
<!DOCTYPE svg PUBLIC "-//W3C//DTD SVG 20010904//EN"
 "http://www.w3.org/TR/2001/REC-SVG-20010904/DTD/svg10.dtd">
<svg version="1.0" xmlns="http://www.w3.org/2000/svg"
 width="512.000000pt" height="512.000000pt" viewBox="0 0 512.000000 512.000000"
 preserveAspectRatio="xMidYMid meet">
    <g transform="translate(0.000000,512.000000) scale(0.100000,-0.100000)"
    fill="#ffc254" stroke="none">
        <path d="M2165 4109 c-119 -10 -284 -48 -372 -86 -17 -7 -36 -13 -43 -13 -7 0
        -24 -6 -38 -14 -15 -7 -45 -22 -67 -32 -246 -115 -518 -361 -651 -589 -16 -27
        -34 -59 -41 -70 -7 -11 -17 -30 -23 -43 -5 -13 -21 -46 -34 -75 -95 -205 -131
        -406 -123 -693 l5 -182 -74 -4 c-64 -3 -77 -7 -103 -32 -66 -63 -43 -183 42
        -215 17 -7 128 -11 285 -11 142 0 272 -4 291 -10 44 -12 69 -43 77 -95 13 -92
        -31 -146 -125 -153 -99 -6 -144 -35 -157 -99 -12 -63 4 -104 60 -150 11 -9
        129 -13 469 -15 l454 -3 33 -33 c67 -68 47 -177 -40 -216 -31 -14 -83 -16
        -342 -16 l-305 0 -26 -24 c-50 -46 -52 -151 -5 -198 l23 -23 1170 -3 c643 -1
        1185 0 1203 3 23 4 41 18 62 47 34 47 38 82 13 132 -35 68 -21 66 -528 66
        -497 0 -491 -1 -542 58 -30 33 -32 125 -4 160 11 12 24 22 29 22 6 0 12 6 14
        13 3 8 42 13 135 15 129 4 132 4 165 33 31 29 33 34 33 97 0 54 -4 72 -20 88
        -30 30 -70 44 -128 44 -64 0 -94 15 -124 59 -38 56 -29 116 25 171 l24 25 707
        5 c768 5 735 3 771 63 36 59 21 137 -33 175 -32 21 -42 22 -238 22 l-204 0 0
        248 c0 207 -3 258 -18 317 -29 111 -49 178 -64 212 -7 17 -13 36 -13 41 0 6
        -7 23 -15 39 -7 15 -23 48 -35 73 -12 25 -26 54 -33 65 -6 11 -25 43 -41 70
        -138 233 -404 474 -651 589 -22 10 -51 24 -65 31 -14 7 -40 16 -57 20 -18 3
        -33 11 -33 16 0 5 -11 9 -25 9 -13 0 -42 6 -62 14 -66 24 -174 45 -293 56
        -128 11 -151 11 -295 -1z"/>
        <path d="M3355 1778 c-48 -26 -65 -58 -65 -122 0 -57 2 -62 37 -93 l37 -33
        188 0 c119 0 188 4 188 10 0 6 6 10 14 10 8 0 24 16 36 36 18 28 21 46 18 88
        -5 56 -22 81 -71 104 -36 16 -353 16 -382 0z"/>
        <path d="M4095 1777 c-41 -20 -60 -59 -60 -120 0 -53 3 -60 37 -92 l37 -35
        184 0 184 0 38 33 c37 32 38 36 38 95 0 65 -16 92 -70 121 -27 14 -359 13
        -388 -2z"/>
    </g>
</svg>
