
<svg xmlns="http://www.w3.org/2000/svg" xmlns:xlink="http://www.w3.org/1999/xlink" version="1.1" width="318.50919999999996" height="335.28999999999996" xml:space="preserve">
                <desc>Created with Fabric.js 1.6.0-rc.1</desc>
                <defs></defs>
                <g style="stroke: none; stroke-width: 1; stroke-dasharray: none; stroke-linecap: butt; stroke-linejoin: miter; stroke-miterlimit: 10; fill: none; fill-rule: nonzero; opacity: 1;" transform="translate(13.259999999999991 10) rotate(-0.23) scale(1.64 1.64)" >
                <path d="M 162.929 66.612 c -2.814 -1.754 -6.514 -0.896 -8.267 1.917 s -0.895 6.513 1.917 8.266 c 6.544 4.081 10.45 11.121 10.45 18.833 s -3.906 14.752 -10.45 18.833 l -98.417 61.365 c -6.943 4.329 -15.359 4.542 -22.512 0.573 c -7.154 -3.97 -11.425 -11.225 -11.425 -19.406 V 34.262 c 0 -8.181 4.271 -15.436 11.425 -19.406 c 7.153 -3.969 15.569 -3.756 22.512 0.573 l 57.292 35.723 c 2.813 1.752 6.513 0.895 8.267 -1.917 c 1.753 -2.812 0.895 -6.513 -1.917 -8.266 L 64.512 5.247 c -10.696 -6.669 -23.661 -7 -34.685 -0.883 C 18.806 10.48 12.226 21.657 12.226 34.262 v 122.73 c 0 12.605 6.58 23.782 17.602 29.898 c 5.25 2.913 10.939 4.364 16.616 4.364 c 6.241 0 12.467 -1.754 18.068 -5.247 l 98.417 -61.365 c 10.082 -6.287 16.101 -17.133 16.101 -29.015 S 173.011 72.899 162.929 66.612 z" style="stroke: none; stroke-width: 1; stroke-dasharray: none; stroke-linecap: butt; stroke-linejoin: miter; stroke-miterlimit: 10; fill: #c5d0e7; fill-rule: nonzero; opacity: 1;" transform=" matrix(1 0 0 1 0 0) " stroke-linecap="round" />
                </g>
                <g style="stroke: none; stroke-width: 1; stroke-dasharray: none; stroke-linecap: butt; stroke-linejoin: miter; stroke-miterlimit: 10; fill: none; fill-rule: nonzero; opacity: 1;" transform="translate(10 50.110000000000014) scale(0.45 0.45)" >
                <circle cx="256" cy="256" r="256" style="stroke: none; stroke-width: 1; stroke-dasharray: none; stroke-linecap: butt; stroke-linejoin: miter; stroke-miterlimit: 10; fill: #F2EBD9; fill-rule: nonzero; opacity: 0;" transform="  matrix(1 0 0 1 0 0) "/>
                <rect x="137.14" y="82.29" rx="0" ry="0" width="237.72" height="329.14" style="stroke: none; stroke-width: 1; stroke-dasharray: none; stroke-linecap: butt; stroke-linejoin: miter; stroke-miterlimit: 10; fill: #510079; fill-rule: nonzero; opacity: 1;" transform=" matrix(1 0 0 1 0 0) "/>
                <rect x="155.43" y="125.71" rx="0" ry="0" width="45.71" height="4.57" style="stroke: none; stroke-width: 1; stroke-dasharray: none; stroke-linecap: butt; stroke-linejoin: miter; stroke-miterlimit: 10; fill: #FFCE35; fill-rule: nonzero; opacity: 1;" transform=" matrix(1 0 0 1 0 0) "/>
                <rect x="164.57" y="144" rx="0" ry="0" width="73.14" height="4.57" style="stroke: none; stroke-width: 1; stroke-dasharray: none; stroke-linecap: butt; stroke-linejoin: miter; stroke-miterlimit: 10; fill: #666970; fill-rule: nonzero; opacity: 1;" transform=" matrix(1 0 0 1 0 0) "/>
                <rect x="192" y="171.43" rx="0" ry="0" width="64" height="4.57" style="stroke: none; stroke-width: 1; stroke-dasharray: none; stroke-linecap: butt; stroke-linejoin: miter; stroke-miterlimit: 10; fill: #666970; fill-rule: nonzero; opacity: 1;" transform=" matrix(1 0 0 1 0 0) "/>
                <rect x="219.43" y="153.14" rx="0" ry="0" width="114.28" height="4.57" style="stroke: none; stroke-width: 1; stroke-dasharray: none; stroke-linecap: butt; stroke-linejoin: miter; stroke-miterlimit: 10; fill: #FFFFFF; fill-rule: nonzero; opacity: 1;" transform=" matrix(1 0 0 1 0 0) "/>
                <rect x="182.86" y="162.29" rx="0" ry="0" width="50.28" height="4.57" style="stroke: none; stroke-width: 1; stroke-dasharray: none; stroke-linecap: butt; stroke-linejoin: miter; stroke-miterlimit: 10; fill: #27BEC4; fill-rule: nonzero; opacity: 1;" transform=" matrix(1 0 0 1 0 0) "/>
                <rect x="173.71" y="217.14" rx="0" ry="0" width="82.29" height="4.57" style="stroke: none; stroke-width: 1; stroke-dasharray: none; stroke-linecap: butt; stroke-linejoin: miter; stroke-miterlimit: 10; fill: #666970; fill-rule: nonzero; opacity: 1;" transform=" matrix(1 0 0 1 0 0) "/>
                <rect x="164.57" y="208" rx="0" ry="0" width="32" height="4.57" style="stroke: none; stroke-width: 1; stroke-dasharray: none; stroke-linecap: butt; stroke-linejoin: miter; stroke-miterlimit: 10; fill: #27BEC4; fill-rule: nonzero; opacity: 1;" transform=" matrix(1 0 0 1 0 0) "/>
                <rect x="192" y="235.43" rx="0" ry="0" width="13.71" height="4.57" style="stroke: none; stroke-width: 1; stroke-dasharray: none; stroke-linecap: butt; stroke-linejoin: miter; stroke-miterlimit: 10; fill: #27BEC4; fill-rule: nonzero; opacity: 1;" transform=" matrix(1 0 0 1 0 0) "/>
                <rect x="205.71" y="208" rx="0" ry="0" width="82.29" height="4.57" style="stroke: none; stroke-width: 1; stroke-dasharray: none; stroke-linecap: butt; stroke-linejoin: miter; stroke-miterlimit: 10; fill: #666970; fill-rule: nonzero; opacity: 1;" transform=" matrix(1 0 0 1 0 0) "/>
                <rect x="214.86" y="235.43" rx="0" ry="0" width="141.71" height="4.57" style="stroke: none; stroke-width: 1; stroke-dasharray: none; stroke-linecap: butt; stroke-linejoin: miter; stroke-miterlimit: 10; fill: #666970; fill-rule: nonzero; opacity: 1;" transform=" matrix(1 0 0 1 0 0) "/>
                <rect x="182.86" y="226.29" rx="0" ry="0" width="41.14" height="4.57" style="stroke: none; stroke-width: 1; stroke-dasharray: none; stroke-linecap: butt; stroke-linejoin: miter; stroke-miterlimit: 10; fill: #FFFFFF; fill-rule: nonzero; opacity: 1;" transform=" matrix(1 0 0 1 0 0) "/>
                <rect x="233.14" y="226.29" rx="0" ry="0" width="18.29" height="4.57" style="stroke: none; stroke-width: 1; stroke-dasharray: none; stroke-linecap: butt; stroke-linejoin: miter; stroke-miterlimit: 10; fill: #FFCE35; fill-rule: nonzero; opacity: 1;" transform=" matrix(1 0 0 1 0 0) "/>
                <rect x="260.57" y="226.29" rx="0" ry="0" width="36.57" height="4.57" style="stroke: none; stroke-width: 1; stroke-dasharray: none; stroke-linecap: butt; stroke-linejoin: miter; stroke-miterlimit: 10; fill: #FFFFFF; fill-rule: nonzero; opacity: 1;" transform=" matrix(1 0 0 1 0 0) "/>
                <rect x="297.14" y="208" rx="0" ry="0" width="59.43" height="4.57" style="stroke: none; stroke-width: 1; stroke-dasharray: none; stroke-linecap: butt; stroke-linejoin: miter; stroke-miterlimit: 10; fill: #FFFFFF; fill-rule: nonzero; opacity: 1;" transform=" matrix(1 0 0 1 0 0) "/>
                <rect x="137.14" y="82.29" rx="0" ry="0" width="237.72" height="18.29" style="stroke: none; stroke-width: 1; stroke-dasharray: none; stroke-linecap: butt; stroke-linejoin: miter; stroke-miterlimit: 10; fill: rgb(0,0,0); fill-rule: nonzero; opacity: 1;" transform=" matrix(1 0 0 1 0 0) "/>
                <rect x="246.86" y="144" rx="0" ry="0" width="36.57" height="4.57" style="stroke: none; stroke-width: 1; stroke-dasharray: none; stroke-linecap: butt; stroke-linejoin: miter; stroke-miterlimit: 10; fill: #666970; fill-rule: nonzero; opacity: 1;" transform=" matrix(1 0 0 1 0 0) "/>
                <rect x="173.71" y="153.14" rx="0" ry="0" width="36.57" height="4.57" style="stroke: none; stroke-width: 1; stroke-dasharray: none; stroke-linecap: butt; stroke-linejoin: miter; stroke-miterlimit: 10; fill: #FFCE35; fill-rule: nonzero; opacity: 1;" transform=" matrix(1 0 0 1 0 0) "/>
                <rect x="155.43" y="189.71" rx="0" ry="0" width="27.43" height="4.57" style="stroke: none; stroke-width: 1; stroke-dasharray: none; stroke-linecap: butt; stroke-linejoin: miter; stroke-miterlimit: 10; fill: #FFCE35; fill-rule: nonzero; opacity: 1;" transform=" matrix(1 0 0 1 0 0) "/>
                <rect x="155.43" y="262.86" rx="0" ry="0" width="45.71" height="4.57" style="stroke: none; stroke-width: 1; stroke-dasharray: none; stroke-linecap: butt; stroke-linejoin: miter; stroke-miterlimit: 10; fill: #FFCE35; fill-rule: nonzero; opacity: 1;" transform=" matrix(1 0 0 1 0 0) "/>
                <rect x="164.57" y="281.14" rx="0" ry="0" width="73.14" height="4.57" style="stroke: none; stroke-width: 1; stroke-dasharray: none; stroke-linecap: butt; stroke-linejoin: miter; stroke-miterlimit: 10; fill: #666970; fill-rule: nonzero; opacity: 1;" transform=" matrix(1 0 0 1 0 0) "/>
                <rect x="192" y="308.57" rx="0" ry="0" width="64" height="4.57" style="stroke: none; stroke-width: 1; stroke-dasharray: none; stroke-linecap: butt; stroke-linejoin: miter; stroke-miterlimit: 10; fill: #666970; fill-rule: nonzero; opacity: 1;" transform=" matrix(1 0 0 1 0 0) "/>
                <rect x="219.43" y="290.29" rx="0" ry="0" width="114.28" height="4.57" style="stroke: none; stroke-width: 1; stroke-dasharray: none; stroke-linecap: butt; stroke-linejoin: miter; stroke-miterlimit: 10; fill: #FFFFFF; fill-rule: nonzero; opacity: 1;" transform=" matrix(1 0 0 1 0 0) "/>
                <rect x="182.86" y="299.43" rx="0" ry="0" width="50.28" height="4.57" style="stroke: none; stroke-width: 1; stroke-dasharray: none; stroke-linecap: butt; stroke-linejoin: miter; stroke-miterlimit: 10; fill: #27BEC4; fill-rule: nonzero; opacity: 1;" transform=" matrix(1 0 0 1 0 0) "/>
                <rect x="173.71" y="354.29" rx="0" ry="0" width="82.29" height="4.57" style="stroke: none; stroke-width: 1; stroke-dasharray: none; stroke-linecap: butt; stroke-linejoin: miter; stroke-miterlimit: 10; fill: #666970; fill-rule: nonzero; opacity: 1;" transform=" matrix(1 0 0 1 0 0) "/>
                <rect x="164.57" y="345.14" rx="0" ry="0" width="32" height="4.57" style="stroke: none; stroke-width: 1; stroke-dasharray: none; stroke-linecap: butt; stroke-linejoin: miter; stroke-miterlimit: 10; fill: #27BEC4; fill-rule: nonzero; opacity: 1;" transform=" matrix(1 0 0 1 0 0) "/>
                <rect x="192" y="372.57" rx="0" ry="0" width="13.71" height="4.57" style="stroke: none; stroke-width: 1; stroke-dasharray: none; stroke-linecap: butt; stroke-linejoin: miter; stroke-miterlimit: 10; fill: #27BEC4; fill-rule: nonzero; opacity: 1;" transform=" matrix(1 0 0 1 0 0) "/>
                <rect x="205.71" y="345.14" rx="0" ry="0" width="82.29" height="4.57" style="stroke: none; stroke-width: 1; stroke-dasharray: none; stroke-linecap: butt; stroke-linejoin: miter; stroke-miterlimit: 10; fill: #666970; fill-rule: nonzero; opacity: 1;" transform=" matrix(1 0 0 1 0 0) "/>
                <rect x="214.86" y="372.57" rx="0" ry="0" width="141.71" height="4.57" style="stroke: none; stroke-width: 1; stroke-dasharray: none; stroke-linecap: butt; stroke-linejoin: miter; stroke-miterlimit: 10; fill: #666970; fill-rule: nonzero; opacity: 1;" transform=" matrix(1 0 0 1 0 0) "/>
                <rect x="182.86" y="363.43" rx="0" ry="0" width="41.14" height="4.57" style="stroke: none; stroke-width: 1; stroke-dasharray: none; stroke-linecap: butt; stroke-linejoin: miter; stroke-miterlimit: 10; fill: #FFFFFF; fill-rule: nonzero; opacity: 1;" transform=" matrix(1 0 0 1 0 0) "/>
                <rect x="233.14" y="363.43" rx="0" ry="0" width="18.29" height="4.57" style="stroke: none; stroke-width: 1; stroke-dasharray: none; stroke-linecap: butt; stroke-linejoin: miter; stroke-miterlimit: 10; fill: #FFCE35; fill-rule: nonzero; opacity: 1;" transform=" matrix(1 0 0 1 0 0) "/>
                <rect x="260.57" y="363.43" rx="0" ry="0" width="36.57" height="4.57" style="stroke: none; stroke-width: 1; stroke-dasharray: none; stroke-linecap: butt; stroke-linejoin: miter; stroke-miterlimit: 10; fill: #FFFFFF; fill-rule: nonzero; opacity: 1;" transform=" matrix(1 0 0 1 0 0) "/>
                <rect x="297.14" y="345.14" rx="0" ry="0" width="59.43" height="4.57" style="stroke: none; stroke-width: 1; stroke-dasharray: none; stroke-linecap: butt; stroke-linejoin: miter; stroke-miterlimit: 10; fill: #FFFFFF; fill-rule: nonzero; opacity: 1;" transform=" matrix(1 0 0 1 0 0) "/>
                <rect x="246.86" y="281.14" rx="0" ry="0" width="36.57" height="4.57" style="stroke: none; stroke-width: 1; stroke-dasharray: none; stroke-linecap: butt; stroke-linejoin: miter; stroke-miterlimit: 10; fill: #666970; fill-rule: nonzero; opacity: 1;" transform=" matrix(1 0 0 1 0 0) "/>
                <rect x="173.71" y="290.29" rx="0" ry="0" width="36.57" height="4.57" style="stroke: none; stroke-width: 1; stroke-dasharray: none; stroke-linecap: butt; stroke-linejoin: miter; stroke-miterlimit: 10; fill: #FFCE35; fill-rule: nonzero; opacity: 1;" transform=" matrix(1 0 0 1 0 0) "/>
                <rect x="155.43" y="326.86" rx="0" ry="0" width="27.43" height="4.57" style="stroke: none; stroke-width: 1; stroke-dasharray: none; stroke-linecap: butt; stroke-linejoin: miter; stroke-miterlimit: 10; fill: #FFCE35; fill-rule: nonzero; opacity: 1;" transform=" matrix(1 0 0 1 0 0) "/>
                </g>
                <g transform="translate(130.15 165.65) scale(1.26 1.18)">
                <text font-family="Roboto Condensed" font-size="40" font-weight="700" style="text-transform: uppercase;stroke: none; stroke-width: 1; stroke-dasharray: none; stroke-linecap: butt; stroke-linejoin: miter; stroke-miterlimit: 10; fill: #ffffff; fill-rule: nonzero; opacity: 1;" ><tspan x="-40.17" y="8.98" style="stroke: none; stroke-width: 0; stroke-dasharray: none; stroke-linecap: butt; stroke-linejoin: miter; stroke-miterlimit: 4; fill: #ffffff; fill-rule: ; opacity: 1;">c</tspan><tspan x="-13.1" y="8.98" style="stroke: none; stroke-width: 0; stroke-dasharray: none; stroke-linecap: butt; stroke-linejoin: miter; stroke-miterlimit: 4; fill: #ffffff; fill-rule: ; opacity: 1;">r</tspan><tspan x="12.53" y="8.98" style="stroke: none; stroke-width: 0; stroke-dasharray: none; stroke-linecap: butt; stroke-linejoin: miter; stroke-miterlimit: 4; fill: #ffffff; fill-rule: ; opacity: 1;">u</tspan></text>
                </g>
                <g transform="translate(220.47 165.95) scale(1.45 1.18)">
                <text font-family="Roboto Condensed" font-size="40" font-weight="700" style="text-transform: uppercase;stroke: none; stroke-width: 1; stroke-dasharray: none; stroke-linecap: butt; stroke-linejoin: miter; stroke-miterlimit: 10; fill: #910fbd; fill-rule: nonzero; opacity: 1;" ><tspan x="-28.81" y="8.98" style="stroke: none; stroke-width: 0; stroke-dasharray: none; stroke-linecap: butt; stroke-linejoin: miter; stroke-miterlimit: 4; fill: #910fbd; fill-rule: ; opacity: 1;">m</tspan><tspan x="5.29" y="8.98" style="stroke: none; stroke-width: 0; stroke-dasharray: none; stroke-linecap: butt; stroke-linejoin: miter; stroke-miterlimit: 4; fill: #910fbd; fill-rule: ; opacity: 1;">b</tspan></text>
                </g>
                </svg>